<svg width="36" height="37" viewBox="0 0 36 37" fill="none" xmlns="http://www.w3.org/2000/svg">
<g clip-path="url(#clip0_849_12398)">
<path d="M11.5312 2.3291H10.8197C10.4738 1.34754 9.53719 0.641602 8.4375 0.641602C7.0425 0.641602 5.90625 1.77785 5.90625 3.17285C5.90625 4.56785 7.0425 5.7041 8.4375 5.7041C9.53719 5.7041 10.4738 4.99816 10.8197 4.0166H11.5312C11.8406 4.0166 12.0938 4.26973 12.0938 4.5791V7.67285C12.0938 8.13973 12.4706 8.5166 12.9375 8.5166C13.4044 8.5166 13.7812 8.13973 13.7812 7.67285V4.5791C13.7812 3.33879 12.7716 2.3291 11.5312 2.3291ZM8.4375 4.0166C7.97344 4.0166 7.59375 3.63691 7.59375 3.17285C7.59375 2.70879 7.97344 2.3291 8.4375 2.3291C8.90156 2.3291 9.28125 2.70879 9.28125 3.17285C9.28125 3.63691 8.90156 4.0166 8.4375 4.0166Z" fill="url(#paint0_linear_849_12398)"/>
<path d="M18 0.641602C16.605 0.641602 15.4688 1.77785 15.4688 3.17285C15.4688 4.27254 16.1747 5.2091 17.1562 5.55504V7.67285C17.1562 8.13973 17.5331 8.5166 18 8.5166C18.4669 8.5166 18.8438 8.13973 18.8438 7.67285V5.55504C19.8253 5.2091 20.5312 4.27254 20.5312 3.17285C20.5312 1.77785 19.395 0.641602 18 0.641602ZM18 4.0166C17.5359 4.0166 17.1562 3.63691 17.1562 3.17285C17.1562 2.70879 17.5359 2.3291 18 2.3291C18.4641 2.3291 18.8438 2.70879 18.8438 3.17285C18.8438 3.63691 18.4641 4.0166 18 4.0166Z" fill="url(#paint1_linear_849_12398)"/>
<path d="M27.5625 0.641602C26.4628 0.641602 25.5262 1.34754 25.1803 2.3291H24.4688C23.2284 2.3291 22.2188 3.33879 22.2188 4.5791V7.67285C22.2188 8.13973 22.5956 8.5166 23.0625 8.5166C23.5294 8.5166 23.9062 8.13973 23.9062 7.67285V4.5791C23.9062 4.26973 24.1594 4.0166 24.4688 4.0166H25.1803C25.5262 4.99816 26.4628 5.7041 27.5625 5.7041C28.9575 5.7041 30.0938 4.56785 30.0938 3.17285C30.0938 1.77785 28.9575 0.641602 27.5625 0.641602ZM27.5625 4.0166C27.0984 4.0166 26.7188 3.63691 26.7188 3.17285C26.7188 2.70879 27.0984 2.3291 27.5625 2.3291C28.0266 2.3291 28.4062 2.70879 28.4062 3.17285C28.4062 3.63691 28.0266 4.0166 27.5625 4.0166Z" fill="url(#paint2_linear_849_12398)"/>
<path d="M2.25 24.5479V25.2594C1.26844 25.6054 0.5625 26.5419 0.5625 27.6416C0.5625 29.0366 1.69875 30.1729 3.09375 30.1729C4.48875 30.1729 5.625 29.0366 5.625 27.6416C5.625 26.5419 4.91906 25.6054 3.9375 25.2594V24.5479C3.9375 24.2385 4.19062 23.9854 4.5 23.9854H7.59375C8.06062 23.9854 8.4375 23.6085 8.4375 23.1416C8.4375 22.6747 8.06062 22.2979 7.59375 22.2979H4.5C3.25969 22.2979 2.25 23.3075 2.25 24.5479ZM3.9375 27.6416C3.9375 28.1057 3.55781 28.4854 3.09375 28.4854C2.62969 28.4854 2.25 28.1057 2.25 27.6416C2.25 27.1775 2.62969 26.7979 3.09375 26.7979C3.55781 26.7979 3.9375 27.1775 3.9375 27.6416Z" fill="url(#paint3_linear_849_12398)"/>
<path d="M0.5625 18.0791C0.5625 19.4741 1.69875 20.6104 3.09375 20.6104C4.19344 20.6104 5.13 19.9044 5.47594 18.9229H7.59375C8.06062 18.9229 8.4375 18.546 8.4375 18.0791C8.4375 17.6122 8.06062 17.2354 7.59375 17.2354H5.47594C5.13 16.2538 4.19344 15.5479 3.09375 15.5479C1.69875 15.5479 0.5625 16.6841 0.5625 18.0791ZM3.9375 18.0791C3.9375 18.5432 3.55781 18.9229 3.09375 18.9229C2.62969 18.9229 2.25 18.5432 2.25 18.0791C2.25 17.615 2.62969 17.2354 3.09375 17.2354C3.55781 17.2354 3.9375 17.615 3.9375 18.0791Z" fill="url(#paint4_linear_849_12398)"/>
<path d="M0.5625 8.5166C0.5625 9.61629 1.26844 10.5529 2.25 10.8988V11.6104C2.25 12.8507 3.25969 13.8604 4.5 13.8604H7.59375C8.06062 13.8604 8.4375 13.4835 8.4375 13.0166C8.4375 12.5497 8.06062 12.1729 7.59375 12.1729H4.5C4.19062 12.1729 3.9375 11.9197 3.9375 11.6104V10.8988C4.91906 10.5529 5.625 9.61629 5.625 8.5166C5.625 7.1216 4.48875 5.98535 3.09375 5.98535C1.69875 5.98535 0.5625 7.1216 0.5625 8.5166ZM3.9375 8.5166C3.9375 8.98066 3.55781 9.36035 3.09375 9.36035C2.62969 9.36035 2.25 8.98066 2.25 8.5166C2.25 8.05254 2.62969 7.67285 3.09375 7.67285C3.55781 7.67285 3.9375 8.05254 3.9375 8.5166Z" fill="url(#paint5_linear_849_12398)"/>
<path d="M24.4688 33.8291H25.1803C25.5262 34.8107 26.4628 35.5166 27.5625 35.5166C28.9575 35.5166 30.0938 34.3804 30.0938 32.9854C30.0938 31.5904 28.9575 30.4541 27.5625 30.4541C26.4628 30.4541 25.5262 31.16 25.1803 32.1416H24.4688C24.1594 32.1416 23.9062 31.8885 23.9062 31.5791V28.4854C23.9062 28.0185 23.5294 27.6416 23.0625 27.6416C22.5956 27.6416 22.2188 28.0185 22.2188 28.4854V31.5791C22.2188 32.8194 23.2284 33.8291 24.4688 33.8291ZM27.5625 32.1416C28.0266 32.1416 28.4062 32.5213 28.4062 32.9854C28.4062 33.4494 28.0266 33.8291 27.5625 33.8291C27.0984 33.8291 26.7188 33.4494 26.7188 32.9854C26.7188 32.5213 27.0984 32.1416 27.5625 32.1416Z" fill="url(#paint6_linear_849_12398)"/>
<path d="M18 35.5166C19.395 35.5166 20.5312 34.3804 20.5312 32.9854C20.5312 31.8857 19.8253 30.9491 18.8438 30.6032V28.4854C18.8438 28.0185 18.4669 27.6416 18 27.6416C17.5331 27.6416 17.1562 28.0185 17.1562 28.4854V30.6032C16.1747 30.9491 15.4688 31.8857 15.4688 32.9854C15.4688 34.3804 16.605 35.5166 18 35.5166ZM18 32.1416C18.4641 32.1416 18.8438 32.5213 18.8438 32.9854C18.8438 33.4494 18.4641 33.8291 18 33.8291C17.5359 33.8291 17.1562 33.4494 17.1562 32.9854C17.1562 32.5213 17.5359 32.1416 18 32.1416Z" fill="url(#paint7_linear_849_12398)"/>
<path d="M8.4375 35.5166C9.53719 35.5166 10.4738 34.8107 10.8197 33.8291H11.5312C12.7716 33.8291 13.7812 32.8194 13.7812 31.5791V28.4854C13.7812 28.0185 13.4044 27.6416 12.9375 27.6416C12.4706 27.6416 12.0938 28.0185 12.0938 28.4854V31.5791C12.0938 31.8885 11.8406 32.1416 11.5312 32.1416H10.8197C10.4738 31.16 9.53719 30.4541 8.4375 30.4541C7.0425 30.4541 5.90625 31.5904 5.90625 32.9854C5.90625 34.3804 7.0425 35.5166 8.4375 35.5166ZM8.4375 32.1416C8.90156 32.1416 9.28125 32.5213 9.28125 32.9854C9.28125 33.4494 8.90156 33.8291 8.4375 33.8291C7.97344 33.8291 7.59375 33.4494 7.59375 32.9854C7.59375 32.5213 7.97344 32.1416 8.4375 32.1416Z" fill="url(#paint8_linear_849_12398)"/>
<path d="M33.75 11.6104V10.8988C34.7316 10.5529 35.4375 9.61629 35.4375 8.5166C35.4375 7.1216 34.3013 5.98535 32.9062 5.98535C31.5112 5.98535 30.375 7.1216 30.375 8.5166C30.375 9.61629 31.0809 10.5529 32.0625 10.8988V11.6104C32.0625 11.9197 31.8094 12.1729 31.5 12.1729H28.4062C27.9394 12.1729 27.5625 12.5497 27.5625 13.0166C27.5625 13.4835 27.9394 13.8604 28.4062 13.8604H31.5C32.7403 13.8604 33.75 12.8507 33.75 11.6104ZM32.0625 8.5166C32.0625 8.05254 32.4422 7.67285 32.9062 7.67285C33.3703 7.67285 33.75 8.05254 33.75 8.5166C33.75 8.98066 33.3703 9.36035 32.9062 9.36035C32.4422 9.36035 32.0625 8.98066 32.0625 8.5166Z" fill="url(#paint9_linear_849_12398)"/>
<path d="M35.4375 18.0791C35.4375 16.6841 34.3013 15.5479 32.9062 15.5479C31.8066 15.5479 30.87 16.2538 30.5241 17.2354H28.4062C27.9394 17.2354 27.5625 17.6122 27.5625 18.0791C27.5625 18.546 27.9394 18.9229 28.4062 18.9229H30.5241C30.87 19.9044 31.8066 20.6104 32.9062 20.6104C34.3013 20.6104 35.4375 19.4741 35.4375 18.0791ZM32.0625 18.0791C32.0625 17.615 32.4422 17.2354 32.9062 17.2354C33.3703 17.2354 33.75 17.615 33.75 18.0791C33.75 18.5432 33.3703 18.9229 32.9062 18.9229C32.4422 18.9229 32.0625 18.5432 32.0625 18.0791Z" fill="url(#paint10_linear_849_12398)"/>
<path d="M35.4375 27.6416C35.4375 26.5419 34.7316 25.6054 33.75 25.2594V24.5479C33.75 23.3075 32.7403 22.2979 31.5 22.2979H28.4062C27.9394 22.2979 27.5625 22.6747 27.5625 23.1416C27.5625 23.6085 27.9394 23.9854 28.4062 23.9854H31.5C31.8094 23.9854 32.0625 24.2385 32.0625 24.5479V25.2594C31.0809 25.6054 30.375 26.5419 30.375 27.6416C30.375 29.0366 31.5112 30.1729 32.9062 30.1729C34.3013 30.1729 35.4375 29.0366 35.4375 27.6416ZM32.0625 27.6416C32.0625 27.1775 32.4422 26.7979 32.9062 26.7979C33.3703 26.7979 33.75 27.1775 33.75 27.6416C33.75 28.1057 33.3703 28.4854 32.9062 28.4854C32.4422 28.4854 32.0625 28.1057 32.0625 27.6416Z" fill="url(#paint11_linear_849_12398)"/>
<path d="M29.25 12.1729V23.9854C29.25 26.9329 26.8537 29.3291 23.9062 29.3291H12.0938C9.14625 29.3291 6.75 26.9329 6.75 23.9854V12.1729C6.75 9.22535 9.14625 6.8291 12.0938 6.8291H23.9062C26.8537 6.8291 29.25 9.22535 29.25 12.1729Z" fill="url(#paint12_linear_849_12398)"/>
<path d="M29.25 15.3762V23.9853C29.25 26.9328 26.8537 29.329 23.9062 29.329H15.2971L13.8796 27.9115L10.9912 25.0259L12.3468 23.6703L24.9525 11.0787L29.25 15.3762Z" fill="url(#paint13_linear_849_12398)"/>
<path d="M25.5065 24.2751C25.2505 24.8657 24.7865 25.3298 24.1958 25.5857C22.2271 26.4435 20.1121 26.871 17.9999 26.871C15.8849 26.871 13.7727 26.4435 11.804 25.5857C11.2133 25.3298 10.7493 24.8657 10.4933 24.2751C8.78054 20.3376 8.78054 15.8207 10.4933 11.8832C10.7493 11.2926 11.2133 10.8285 11.804 10.5726C15.7415 8.85976 20.2583 8.85976 24.1958 10.5726C24.7865 10.8285 25.2505 11.2926 25.5065 11.8832C27.2193 15.8207 27.2193 20.3376 25.5065 24.2751Z" fill="url(#paint14_linear_849_12398)"/>
<path d="M16.8242 14.6971C16.703 14.3635 16.3863 14.1416 16.0313 14.1416C15.6764 14.1416 15.3597 14.3635 15.2385 14.6971L12.9885 20.8846C12.8293 21.3225 13.0552 21.8065 13.4931 21.966C13.9301 22.1249 14.415 21.8993 14.5745 21.4614L14.7815 20.8916H17.2812L17.4885 21.4611C17.6131 21.804 17.9368 22.0169 18.2813 22.0169C18.377 22.0169 18.4746 22.0003 18.5696 21.9657C19.0075 21.8065 19.2334 21.3222 19.0742 20.8843L16.8242 14.6971ZM15.3952 19.2041L16.0313 17.4542L16.6675 19.2041H15.3952Z" fill="white"/>
<path d="M21.6562 14.1416C21.1902 14.1416 20.8125 14.5193 20.8125 14.9854V21.1729C20.8125 21.6389 21.1902 22.0166 21.6562 22.0166C22.1223 22.0166 22.5 21.6389 22.5 21.1729V14.9854C22.5 14.5193 22.1223 14.1416 21.6562 14.1416Z" fill="white"/>
</g>
<defs>
<linearGradient id="paint0_linear_849_12398" x1="9.84375" y1="0.641602" x2="9.84375" y2="8.5166" gradientUnits="userSpaceOnUse">
<stop stop-color="#A4EEFF"/>
<stop offset="0.8944" stop-color="#02C0FC"/>
<stop offset="1" stop-color="#27A6FF"/>
</linearGradient>
<linearGradient id="paint1_linear_849_12398" x1="18" y1="0.641602" x2="18" y2="8.5166" gradientUnits="userSpaceOnUse">
<stop stop-color="#A4EEFF"/>
<stop offset="0.7363" stop-color="#02C0FC"/>
<stop offset="0.9217" stop-color="#27A6FF"/>
</linearGradient>
<linearGradient id="paint2_linear_849_12398" x1="26.1562" y1="0.641602" x2="26.1562" y2="8.5166" gradientUnits="userSpaceOnUse">
<stop stop-color="#A4EEFF"/>
<stop offset="0.7363" stop-color="#02C0FC"/>
<stop offset="0.8488" stop-color="#27A6FF"/>
</linearGradient>
<linearGradient id="paint3_linear_849_12398" x1="0.5625" y1="26.2354" x2="8.4375" y2="26.2354" gradientUnits="userSpaceOnUse">
<stop stop-color="#A4EEFF"/>
<stop offset="0.8944" stop-color="#02C0FC"/>
<stop offset="1" stop-color="#27A6FF"/>
</linearGradient>
<linearGradient id="paint4_linear_849_12398" x1="0.5625" y1="18.0791" x2="8.4375" y2="18.0791" gradientUnits="userSpaceOnUse">
<stop stop-color="#A4EEFF"/>
<stop offset="0.7363" stop-color="#02C0FC"/>
<stop offset="0.9217" stop-color="#27A6FF"/>
</linearGradient>
<linearGradient id="paint5_linear_849_12398" x1="0.5625" y1="9.92285" x2="8.4375" y2="9.92285" gradientUnits="userSpaceOnUse">
<stop stop-color="#A4EEFF"/>
<stop offset="0.7363" stop-color="#02C0FC"/>
<stop offset="0.8488" stop-color="#27A6FF"/>
</linearGradient>
<linearGradient id="paint6_linear_849_12398" x1="26.1562" y1="35.5166" x2="26.1562" y2="27.6416" gradientUnits="userSpaceOnUse">
<stop stop-color="#A4EEFF"/>
<stop offset="0.8944" stop-color="#02C0FC"/>
<stop offset="1" stop-color="#27A6FF"/>
</linearGradient>
<linearGradient id="paint7_linear_849_12398" x1="18" y1="35.5166" x2="18" y2="27.6416" gradientUnits="userSpaceOnUse">
<stop stop-color="#A4EEFF"/>
<stop offset="0.7363" stop-color="#02C0FC"/>
<stop offset="0.9217" stop-color="#27A6FF"/>
</linearGradient>
<linearGradient id="paint8_linear_849_12398" x1="9.84375" y1="35.5166" x2="9.84375" y2="27.6416" gradientUnits="userSpaceOnUse">
<stop stop-color="#A4EEFF"/>
<stop offset="0.7363" stop-color="#02C0FC"/>
<stop offset="0.8488" stop-color="#27A6FF"/>
</linearGradient>
<linearGradient id="paint9_linear_849_12398" x1="35.4375" y1="9.92285" x2="27.5625" y2="9.92285" gradientUnits="userSpaceOnUse">
<stop stop-color="#A4EEFF"/>
<stop offset="0.8944" stop-color="#02C0FC"/>
<stop offset="1" stop-color="#27A6FF"/>
</linearGradient>
<linearGradient id="paint10_linear_849_12398" x1="35.4375" y1="18.0791" x2="27.5625" y2="18.0791" gradientUnits="userSpaceOnUse">
<stop stop-color="#A4EEFF"/>
<stop offset="0.7363" stop-color="#02C0FC"/>
<stop offset="0.9217" stop-color="#27A6FF"/>
</linearGradient>
<linearGradient id="paint11_linear_849_12398" x1="35.4375" y1="26.2354" x2="27.5625" y2="26.2354" gradientUnits="userSpaceOnUse">
<stop stop-color="#A4EEFF"/>
<stop offset="0.7363" stop-color="#02C0FC"/>
<stop offset="0.8488" stop-color="#27A6FF"/>
</linearGradient>
<linearGradient id="paint12_linear_849_12398" x1="18" y1="6.8291" x2="18" y2="29.3291" gradientUnits="userSpaceOnUse">
<stop stop-color="#FEF156"/>
<stop offset="0.4189" stop-color="#FFC242"/>
<stop offset="0.6228" stop-color="#FFC042"/>
<stop offset="0.7371" stop-color="#FFB842"/>
<stop offset="0.8292" stop-color="#FEAA41"/>
<stop offset="0.9095" stop-color="#FD9640"/>
<stop offset="0.9814" stop-color="#FC7D3F"/>
<stop offset="1" stop-color="#FC753F"/>
</linearGradient>
<linearGradient id="paint13_linear_849_12398" x1="30.2656" y1="30.346" x2="18.6685" y2="18.749" gradientUnits="userSpaceOnUse">
<stop offset="0.341" stop-color="#F99E0D" stop-opacity="0"/>
<stop offset="0.4501" stop-color="#F49020" stop-opacity="0.078"/>
<stop offset="0.6693" stop-color="#E86D50" stop-opacity="0.233"/>
<stop offset="0.7631" stop-color="#E25D66" stop-opacity="0.3"/>
</linearGradient>
<linearGradient id="paint14_linear_849_12398" x1="9.20888" y1="18.0794" x2="26.7912" y2="18.0794" gradientUnits="userSpaceOnUse">
<stop offset="1.1188e-07" stop-color="#A47AF4"/>
<stop offset="0.4469" stop-color="#8954DD"/>
<stop offset="1" stop-color="#6936BA"/>
</linearGradient>
<clipPath id="clip0_849_12398">
<rect width="36" height="36" fill="white" transform="translate(0 0.0791016)"/>
</clipPath>
</defs>
</svg>
