<svg width="167" height="56" viewBox="0 0 167 56" fill="none" xmlns="http://www.w3.org/2000/svg">
<path d="M158.516 1.00002H8.97744C4.77158 1.00002 1.36206 4.40954 1.36206 8.6154V47.3846C1.36206 51.5905 4.77158 55 8.97744 55H158.516C162.722 55 166.131 51.5905 166.131 47.3846V8.6154C166.131 4.40954 162.722 1.00002 158.516 1.00002Z" fill="black"/>
<path d="M158.516 1.00002H8.97744C4.77158 1.00002 1.36206 4.40954 1.36206 8.6154V47.3846C1.36206 51.5905 4.77158 55 8.97744 55H158.516C162.722 55 166.131 51.5905 166.131 47.3846V8.6154C166.131 4.40954 162.722 1.00002 158.516 1.00002Z" stroke="#A6A6A6" stroke-width="1.27142"/>
<path d="M34.8772 29.059C34.8938 27.7853 35.2399 26.5365 35.8838 25.4287C36.5276 24.3208 37.4484 23.3899 38.5603 22.7228C37.8541 21.7384 36.9222 20.9281 35.8395 20.3565C34.7567 19.785 33.5521 19.4677 32.3212 19.4302C29.6973 19.1612 27.1524 20.9635 25.8149 20.9635C24.451 20.9635 22.3921 19.4569 20.1739 19.5014C18.7395 19.5467 17.3424 19.9539 16.117 20.6834C14.8916 21.413 13.8809 22.44 13.183 23.6642C10.1604 28.774 12.4146 36.2836 15.3098 40.4141C16.7595 42.4366 18.4529 44.6959 20.6682 44.6157C22.8365 44.5279 23.6452 43.266 26.2635 43.266C28.8555 43.266 29.6156 44.6157 31.8753 44.5647C34.2029 44.5279 35.6678 42.5332 37.0662 40.4916C38.1075 39.0505 38.9078 37.4576 39.4395 35.7723C38.0881 35.2141 36.9347 34.2799 36.1233 33.0861C35.3119 31.8923 34.8786 30.4918 34.8772 29.059Z" fill="white"/>
<path d="M30.6022 16.7266C31.8705 15.2399 32.495 13.3291 32.3441 11.3998C30.4056 11.5986 28.6153 12.5028 27.3304 13.9325C26.7018 14.6308 26.2199 15.4433 25.9139 16.3235C25.6065 17.2037 25.4805 18.1343 25.5428 19.062C26.5121 19.0717 27.4716 18.8667 28.3467 18.4621C29.2232 18.0576 29.9944 17.4642 30.6022 16.7266Z" fill="white"/>
<path d="M51.6255 12.0807H54.4916C56.9673 12.0807 58.1733 13.5532 58.1733 16.2244C58.1733 18.8956 56.9562 20.3864 54.4916 20.3864H51.6255V12.0807ZM53.0073 13.2429V19.2242H54.3393C55.9829 19.2242 56.7555 18.2324 56.7555 16.2427C56.7555 14.2408 55.976 13.2429 54.3393 13.2429H53.0073ZM62.5418 13.8453C64.2213 13.8453 65.3955 14.9345 65.3955 16.7417V17.5752C65.3955 19.4432 64.2213 20.4959 62.5418 20.4959C60.8373 20.4959 59.6756 19.4554 59.6756 17.5813V16.7478C59.6756 14.9893 60.8567 13.8453 62.5418 13.8453ZM62.5473 14.9345C61.5864 14.9345 61.0381 15.7377 61.0381 16.8146V17.5327C61.0381 18.6097 61.549 19.4068 62.5473 19.4068C63.5332 19.4068 64.0386 18.6158 64.0386 17.5327V16.8146C64.0386 15.7377 63.5096 14.9345 62.5473 14.9345ZM75.3135 13.9548L73.6215 20.3864H72.2466L70.9021 15.6404H70.8661L69.5452 20.3864H68.1633L66.3993 13.9548H67.8532L68.8875 18.8592H68.9484L70.2444 13.9548H71.5169L72.8489 18.8592H72.9098L73.9621 13.9548H75.3135ZM76.6524 20.3864V13.9548H77.9789V15.1109H78.0453C78.2101 14.6059 78.6781 13.8575 79.981 13.8575C81.277 13.8575 82.1466 14.5754 82.1466 16.0419V20.3864H80.7952V16.4373C80.7952 15.4577 80.2843 15.0074 79.5241 15.0074C78.5258 15.0074 78.0024 15.7741 78.0024 16.8146V20.3864H76.6524ZM84.1916 20.3864V11.6426H85.5416V20.3864H84.1916ZM90.1787 13.8453C91.8582 13.8453 93.0324 14.9345 93.0324 16.7417V17.5752C93.0324 19.4432 91.8582 20.4959 90.1787 20.4959C88.4743 20.4959 87.3126 19.4554 87.3126 17.5813V16.7478C87.3126 14.9893 88.4922 13.8453 90.1787 13.8453ZM90.1843 14.9345C89.2233 14.9345 88.675 15.7377 88.675 16.8146V17.5327C88.675 18.6097 89.186 19.4068 90.1843 19.4068C91.1701 19.4068 91.6755 18.6158 91.6755 17.5327V16.8146C91.6755 15.7377 91.1452 14.9345 90.1843 14.9345ZM96.5313 20.4837C95.2838 20.4837 94.4253 19.7171 94.4253 18.5184C94.4253 17.3805 95.2159 16.6139 96.7016 16.6139H98.3258V16.0114C98.3258 15.2752 97.8578 14.9284 97.1156 14.9284C96.3846 14.9284 96.0564 15.2326 95.9526 15.6585H94.669C94.748 14.5815 95.558 13.8575 97.1572 13.8575C98.5321 13.8575 99.6703 14.4295 99.6703 16.0297V20.3864H98.3867V19.5527H98.3258C98.0392 20.0456 97.4798 20.4837 96.5313 20.4837ZM96.9509 19.4372C97.718 19.4372 98.3258 18.9139 98.3258 18.2142V17.5205H96.9149C96.1298 17.5205 95.7823 17.916 95.7823 18.4514C95.7823 19.1207 96.3416 19.4372 96.9509 19.4372ZM103.832 13.8697C104.739 13.8697 105.433 14.2712 105.682 14.9223H105.749V11.6426H107.1V20.3864H105.786V19.358H105.718C105.524 20.0091 104.752 20.4716 103.814 20.4716C102.336 20.4716 101.375 19.419 101.375 17.7213V16.62C101.375 14.9223 102.354 13.8697 103.832 13.8697ZM104.21 14.9771C103.309 14.9771 102.75 15.6464 102.75 16.8146V17.5205C102.75 18.6948 103.316 19.3641 104.241 19.3641C105.153 19.3641 105.749 18.7009 105.749 17.6057V16.6322C105.749 15.6404 105.098 14.9771 104.21 14.9771ZM114.517 13.8453C116.197 13.8453 117.371 14.9345 117.371 16.7417V17.5752C117.371 19.4432 116.197 20.4959 114.517 20.4959C112.813 20.4959 111.651 19.4554 111.651 17.5813V16.7478C111.651 14.9893 112.832 13.8453 114.517 13.8453ZM114.523 14.9345C113.562 14.9345 113.014 15.7377 113.014 16.8146V17.5327C113.014 18.6097 113.526 19.4068 114.523 19.4068C115.509 19.4068 116.014 18.6158 116.014 17.5327V16.8146C116.014 15.7377 115.485 14.9345 114.523 14.9345ZM119.112 20.3864V13.9548H120.438V15.1109H120.505C120.669 14.6059 121.137 13.8575 122.44 13.8575C123.736 13.8575 124.606 14.5754 124.606 16.0419V20.3864H123.254V16.4373C123.254 15.4577 122.743 15.0074 121.983 15.0074C120.985 15.0074 120.462 15.7741 120.462 16.8146V20.3864H119.112ZM129.833 13.9974V12.3911H131.154V13.9974H132.595V15.0562H131.154V18.4697C131.154 19.1695 131.415 19.3641 132.138 19.3641C132.321 19.3641 132.565 19.352 132.668 19.3398V20.3742C132.559 20.3925 132.108 20.429 131.804 20.429C130.24 20.429 129.815 19.8692 129.815 18.5792V15.0562H128.834V13.9974H129.833ZM134.299 20.3864V11.6426H135.644V15.1109H135.71C135.85 14.6546 136.374 13.8575 137.664 13.8575C138.917 13.8575 139.812 14.5815 139.812 16.048V20.3864H138.467V16.4434C138.467 15.4638 137.926 15.0074 137.159 15.0074C136.191 15.0074 135.644 15.7682 135.644 16.8146V20.3864H134.299ZM144.345 20.4959C142.592 20.4959 141.504 19.419 141.504 17.6057V16.7356C141.504 14.9101 142.696 13.8453 144.266 13.8453C145.878 13.8453 147.016 14.9649 147.016 16.7356V17.4901H142.841V17.8064C142.841 18.7314 143.389 19.4129 144.338 19.4129C145.044 19.4129 145.531 19.0782 145.623 18.6765H146.942C146.863 19.419 146.078 20.4959 144.345 20.4959ZM142.841 16.6078H145.695V16.5226C145.695 15.5551 145.13 14.9101 144.271 14.9101C143.414 14.9101 142.841 15.5551 142.841 16.5226V16.6078Z" fill="white"/>
<path d="M53.5805 42.5407H50.7698L56.4896 25.9294H59.5801L65.2875 42.5407H62.3673L60.8941 37.9406H55.0649L53.5805 42.5407ZM58.0473 28.8013H57.9379L55.6866 35.8231H60.2738L58.0473 28.8013ZM73.0455 42.7232C71.3784 42.7232 70.1129 41.9322 69.4316 40.7518H69.3347V46.8123H66.6333V29.6777H69.2613V31.5639H69.3582C70.0644 30.3348 71.3784 29.5072 73.1064 29.5072C75.9905 29.5072 78.0481 31.6856 78.0481 35.5311V36.6751C78.0481 40.4962 76.0155 42.7232 73.0455 42.7232ZM72.4252 40.4962C74.1407 40.4962 75.3093 39.1211 75.3093 36.529V35.6285C75.3093 33.1338 74.2141 31.7099 72.3767 31.7099C70.4909 31.7099 69.3098 33.2433 69.3098 35.6163V36.529C69.3098 38.9629 70.5019 40.4962 72.4252 40.4962ZM86.7795 42.7232C85.1124 42.7232 83.8469 41.9322 83.1656 40.7518H83.0673V46.8123H80.3659V29.6777H82.9953V31.5639H83.0922C83.7984 30.3348 85.1124 29.5072 86.8404 29.5072C89.7246 29.5072 91.7807 31.6856 91.7807 35.5311V36.6751C91.7807 40.4962 89.7495 42.7232 86.7795 42.7232ZM86.1592 40.4962C87.8747 40.4962 89.0433 39.1211 89.0433 36.529V35.6285C89.0433 33.1338 87.9481 31.7099 86.1107 31.7099C84.2235 31.7099 83.0438 33.2433 83.0438 35.6163V36.529C83.0438 38.9629 84.2359 40.4962 86.1592 40.4962ZM97.3801 37.9284H100.081C100.203 39.3646 101.469 40.5937 103.817 40.5937C105.972 40.5937 107.25 39.5836 107.25 38.0137C107.25 36.7481 106.397 36.0665 104.62 35.6406L101.894 34.9591C99.7533 34.4603 97.8301 33.1824 97.8301 30.4807C97.8301 27.3046 100.605 25.5644 103.83 25.5644C107.054 25.5644 109.743 27.3046 109.804 30.4078H107.151C107.029 28.9961 105.947 27.8278 103.794 27.8278C101.894 27.8278 100.605 28.7284 100.605 30.2739C100.605 31.3571 101.359 32.1359 102.905 32.4887L105.619 33.158C108.114 33.7666 110.012 34.9469 110.012 37.7703C110.012 41.0318 107.371 42.8693 103.611 42.8693C98.9862 42.8693 97.441 40.1676 97.3801 37.9284ZM113.303 29.6777V26.5501H115.956V29.6777H118.464V31.8437H115.956V38.7073C115.956 40.1069 116.479 40.4962 117.928 40.4962C118.159 40.4962 118.378 40.4962 118.537 40.472V42.5407C118.318 42.5773 117.806 42.6259 117.259 42.6259C114.131 42.6259 113.267 41.5063 113.267 38.9263V31.8437H111.491V29.6777H113.303ZM125.759 29.4586C129.459 29.4586 131.467 32.0628 131.467 35.5677V36.602C131.467 40.2286 129.471 42.7598 125.759 42.7598C122.048 42.7598 120.028 40.2286 120.028 36.602V35.5677C120.028 32.075 122.059 29.4586 125.759 29.4586ZM125.759 31.6247C123.751 31.6247 122.753 33.2675 122.753 35.6041V36.5898C122.753 38.8899 123.739 40.5815 125.759 40.5815C127.779 40.5815 128.753 38.9021 128.753 36.5898V35.6041C128.753 33.2554 127.767 31.6247 125.759 31.6247ZM133.75 42.5407V29.6777H136.451V31.3691H136.548C136.876 30.566 137.839 29.495 139.627 29.495C139.981 29.495 140.284 29.5194 140.54 29.5681V31.9533C140.309 31.8925 139.834 31.8559 139.384 31.8559C137.217 31.8559 136.487 33.1946 136.487 34.9226V42.5407H133.75ZM147.093 42.7598C143.65 42.7598 141.459 40.484 141.459 36.6751V35.3729C141.459 31.783 143.6 29.4586 146.984 29.4586C150.415 29.4586 152.484 31.8681 152.484 35.4946V36.7237H144.123V37.028C144.123 39.1941 145.292 40.6301 147.129 40.6301C148.504 40.6301 149.442 39.9486 149.771 38.8412H152.338C151.949 40.9223 150.27 42.7598 147.093 42.7598ZM144.123 34.8374H149.843V34.8131C149.843 32.9877 148.712 31.5517 146.996 31.5517C145.256 31.5517 144.123 32.9877 144.123 34.8131V34.8374Z" fill="white"/>
</svg>
