<svg width="36" height="37" viewBox="0 0 36 37" fill="none" xmlns="http://www.w3.org/2000/svg">
<path d="M23.7493 27.9224L8.65373 12.8315L6.64551 18.1023L11.3407 25.2626L18.4745 29.9313L23.7493 27.9224Z" fill="#FF1100"/>
<path d="M19.9038 17.7014C19.6339 17.7014 19.3641 17.5984 19.1582 17.3925C18.7464 16.9807 18.7464 16.3131 19.1582 15.9013L31.1996 3.85987C31.6113 3.44808 32.279 3.44808 32.6908 3.85987C33.1026 4.27167 33.1026 4.93927 32.6908 5.35107L20.6494 17.3925C20.4435 17.5984 20.1736 17.7014 19.9038 17.7014Z" fill="#C7EB4B"/>
<path d="M14.3545 12.152C14.0846 12.152 13.8148 12.0491 13.6089 11.8431C13.1971 11.4314 13.1971 10.7637 13.6089 10.352L14.1759 9.78494C14.4633 9.49757 14.6216 9.11551 14.6216 8.70906C14.6216 8.30267 14.4633 7.92054 14.1759 7.63317C13.7641 7.22138 13.7641 6.55377 14.1759 6.14198C14.5877 5.73018 15.2553 5.73018 15.6671 6.14198C16.3528 6.82765 16.7304 7.73939 16.7304 8.70913C16.7304 9.67886 16.3528 10.5905 15.6671 11.2763L15.1001 11.8433C14.8942 12.049 14.6244 12.152 14.3545 12.152Z" fill="#C7EB4B"/>
<path d="M12.5094 5.43738C11.9271 5.43738 11.4546 4.96527 11.4546 4.38294C11.4546 3.8006 11.9263 3.32849 12.5087 3.32849H12.5094C13.0917 3.32849 13.5638 3.8006 13.5638 4.38294C13.5638 4.96527 13.0917 5.43738 12.5094 5.43738Z" fill="#A7D22A"/>
<path d="M17.0361 14.933C16.7663 14.933 16.4965 14.8301 16.2906 14.6242C15.8788 14.2125 15.8787 13.5448 16.2905 13.133L16.6604 12.7631C18.6285 10.795 19.7103 8.07079 19.6285 5.28881C19.6114 4.70669 20.0694 4.22101 20.6515 4.20386C21.231 4.18628 21.7193 4.64469 21.7365 5.22688C21.8352 8.5869 20.5285 11.8772 18.1516 14.2542L17.7817 14.6241C17.5759 14.8301 17.306 14.933 17.0361 14.933Z" fill="#A7D22A"/>
<path d="M20.4137 2.80945C19.8313 2.80945 19.3589 2.33734 19.3589 1.75501C19.3589 1.17267 19.8306 0.700562 20.413 0.700562H20.4137C20.9961 0.700562 21.4681 1.17267 21.4681 1.75501C21.4681 2.33734 20.9961 2.80945 20.4137 2.80945Z" fill="#80A613"/>
<path d="M25.6023 23.3004C25.3324 23.3004 25.0625 23.1975 24.8567 22.9916C24.4449 22.5798 24.4449 21.9122 24.8567 21.5004L25.4237 20.9333C26.8392 19.5179 29.1425 19.5178 30.5579 20.9333C30.9697 21.3451 30.9697 22.0127 30.5579 22.4245C30.1462 22.8363 29.4785 22.8363 29.0667 22.4245C28.4734 21.8313 27.5081 21.8313 26.9149 22.4245L26.3479 22.9916C26.1419 23.1975 25.8721 23.3004 25.6023 23.3004Z" fill="#80A613"/>
<path d="M32.3182 25.147C31.7359 25.147 31.2634 24.6749 31.2634 24.0925C31.2634 23.5102 31.7351 23.0381 32.3175 23.0381H32.3182C32.9006 23.0381 33.3727 23.5102 33.3727 24.0925C33.3727 24.6749 32.9006 25.147 32.3182 25.147Z" fill="#A7D22A"/>
<path d="M22.8213 20.6189C22.5514 20.6189 22.2816 20.516 22.0757 20.3101C21.6639 19.8984 21.6639 19.2307 22.0757 18.8189L22.4456 18.4489C24.8226 16.072 28.1116 14.7656 31.4729 14.8639C32.0551 14.881 32.513 15.3668 32.496 15.9489C32.4789 16.5309 31.9927 16.9894 31.411 16.9719C28.6285 16.8897 25.9048 17.9721 23.9368 19.94L23.5669 20.3099C23.361 20.5159 23.0912 20.6189 22.8213 20.6189Z" fill="#A7D22A"/>
<path d="M34.9457 17.2421C34.3633 17.2421 33.8909 16.77 33.8909 16.1876C33.8909 15.6053 34.3626 15.1332 34.945 15.1332H34.9457C35.5281 15.1332 36.0001 15.6053 36.0001 16.1876C36.0001 16.77 35.528 17.2421 34.9457 17.2421Z" fill="#A7D22A"/>
<path d="M25.8515 32.4655C25.2735 32.4655 24.7896 32.0135 24.7571 31.4294C24.706 30.5112 24.3197 29.6474 23.6694 28.9971L7.70737 13.0351C7.09608 12.4238 6.28549 12.0415 5.42499 11.9588L5.13411 11.9308C4.53096 11.8727 4.08915 11.3367 4.14722 10.7337C4.20535 10.1305 4.74101 9.68906 5.34436 9.74677L5.63518 9.77475C7.00132 9.9062 8.2883 10.5131 9.25888 11.4837L25.2209 27.4456C26.2534 28.4781 26.8666 29.8495 26.9478 31.3074C26.9816 31.9124 26.5184 32.4301 25.9135 32.4638C25.8927 32.4649 25.872 32.4655 25.8515 32.4655Z" fill="#FFC200"/>
<path d="M11.3407 25.2627L18.4745 29.9314L23.7492 27.9225L16.2018 20.3773L11.3311 25.2481L11.3407 25.2627Z" fill="#E00000"/>
<path d="M23.6693 28.9969C24.3196 29.6473 24.7059 30.5111 24.757 31.4292C24.7896 32.0134 25.2734 32.4653 25.8514 32.4653C25.8719 32.4653 25.8926 32.4647 25.9133 32.4636C26.5183 32.4299 26.9814 31.9122 26.9477 31.3072C26.8665 29.8494 26.2531 28.4779 25.2207 27.4454L17.1772 19.4019L15.6257 20.9534L23.6693 28.9969Z" fill="#FF9700"/>
<path d="M6.64557 18.1023L0.0592967 35.3882C-0.209305 36.0931 0.481637 36.7841 1.18657 36.5156L18.4745 29.9313L6.64557 18.1023Z" fill="#FFDC78"/>
<path d="M12.5613 24.0179L0.260254 36.319C0.487592 36.5448 0.835348 36.6495 1.18669 36.5156L18.4747 29.9313L12.5613 24.0179Z" fill="#FFC200"/>
<path d="M34.9374 2.69214C34.355 2.69214 33.8826 2.22003 33.8826 1.6377C33.8826 1.05536 34.3543 0.583252 34.9367 0.583252H34.9374C35.5198 0.583252 35.9918 1.05536 35.9918 1.6377C35.9918 2.22003 35.5198 2.69214 34.9374 2.69214Z" fill="#A7D22A"/>
</svg>
