<svg width="167" height="56" viewBox="0 0 167 56" fill="none" xmlns="http://www.w3.org/2000/svg">
<path d="M158.022 1.00002H8.48404C4.27818 1.00002 0.868652 4.40954 0.868652 8.6154V47.3846C0.868652 51.5905 4.27818 55 8.48404 55H158.022C162.228 55 165.638 51.5905 165.638 47.3846V8.6154C165.638 4.40954 162.228 1.00002 158.022 1.00002Z" fill="black"/>
<path d="M158.022 1.00002H8.48404C4.27818 1.00002 0.868652 4.40954 0.868652 8.6154V47.3846C0.868652 51.5905 4.27818 55 8.48404 55H158.022C162.228 55 165.638 51.5905 165.638 47.3846V8.6154C165.638 4.40954 162.228 1.00002 158.022 1.00002Z" stroke="#A6A6A6" stroke-width="1.27142"/>
<path d="M24.831 27.2592L11.3792 41.8589C11.3804 41.8615 11.3804 41.8654 11.3817 41.868C11.7948 43.4533 13.2099 44.62 14.8903 44.62C15.5624 44.62 16.1929 44.4339 16.7336 44.1084L16.7765 44.0825L31.9176 35.1482L24.831 27.2592Z" fill="#EA4335"/>
<path d="M38.4387 24.7556L38.4261 24.7466L31.889 20.8717L24.5244 27.5734L31.9155 35.1291L38.4172 31.2932C39.5568 30.6626 40.3313 29.4339 40.3313 28.0178C40.3313 26.6096 39.5683 25.3874 38.4387 24.7556Z" fill="#FBBC04"/>
<path d="M11.378 14.1452C11.2971 14.4501 11.2542 14.7705 11.2542 15.1013V40.9003C11.2542 41.2309 11.2971 41.5513 11.3792 41.855L25.2922 27.6286L11.378 14.1452Z" fill="#3BB9A3"/>
<path d="M24.9308 28.0151L31.8924 20.8975L16.7689 11.9309C16.2194 11.5936 15.5775 11.3998 14.8915 11.3998C13.2111 11.3998 11.7936 12.5691 11.3804 14.1557L11.3792 14.1596L24.9308 28.0151Z" fill="#34A853"/>
<path d="M60.5703 16.499C60.5703 17.8836 60.1595 18.9868 59.338 19.8083C58.4148 20.7868 57.2011 21.2759 55.6964 21.2759C54.2564 21.2759 53.038 20.7775 52.041 19.7806C51.0441 18.7836 50.5457 17.5559 50.5457 16.0975C50.5457 14.6391 51.0441 13.4113 52.041 12.4144C53.038 11.4175 54.2564 10.919 55.6964 10.919C56.4257 10.919 57.1133 11.0482 57.7595 11.3067C58.4057 11.5652 58.9364 11.9298 59.3518 12.4006L58.438 13.3144C58.1333 12.9452 57.7364 12.659 57.2472 12.4559C56.7671 12.2436 56.2503 12.1375 55.6964 12.1375C54.6164 12.1375 53.7026 12.5113 52.9549 13.259C52.2165 14.0159 51.8472 14.9621 51.8472 16.0975C51.8472 17.2329 52.2165 18.179 52.9549 18.9359C53.7026 19.6836 54.6164 20.0575 55.6964 20.0575C56.6841 20.0575 57.5057 19.7806 58.161 19.2267C58.8164 18.6729 59.1949 17.9113 59.2964 16.9421H55.6964V15.7513H60.501C60.5471 16.0098 60.5703 16.2591 60.5703 16.499ZM67.9057 11.1406V12.359H63.3918V15.5021H67.4626V16.6929H63.3918V19.8359H67.9057V21.0544H62.118V11.1406H67.9057ZM73.0009 12.359V21.0544H71.7271V12.359H68.9579V11.1406H75.7702V12.359H73.0009ZM81.4162 21.0544H80.1424V11.1406H81.4162V21.0544ZM86.7931 12.359V21.0544H85.5192V12.359H82.75V11.1406H89.5623V12.359H86.7931ZM103.37 16.0975C103.37 17.5652 102.881 18.7929 101.902 19.7806C100.915 20.7775 99.7055 21.2759 98.2747 21.2759C96.8347 21.2759 95.6255 20.7775 94.647 19.7806C93.6685 18.7929 93.1793 17.5652 93.1793 16.0975C93.1793 14.6298 93.6685 13.4021 94.647 12.4144C95.6255 11.4175 96.8347 10.919 98.2747 10.919C99.7147 10.919 100.924 11.4221 101.902 12.4283C102.881 13.4159 103.37 14.6391 103.37 16.0975ZM94.4809 16.0975C94.4809 17.2421 94.8409 18.1883 95.5609 18.9359C96.2902 19.6836 97.1947 20.0575 98.2747 20.0575C99.3547 20.0575 100.255 19.6836 100.975 18.9359C101.704 18.1975 102.069 17.2513 102.069 16.0975C102.069 14.9437 101.704 13.9975 100.975 13.259C100.255 12.5113 99.3547 12.1375 98.2747 12.1375C97.1947 12.1375 96.2902 12.5113 95.5609 13.259C94.8409 14.0067 94.4809 14.9528 94.4809 16.0975ZM106.147 21.0544H104.873V11.1406H106.424L111.243 18.8529H111.298L111.243 16.9421V11.1406H112.516V21.0544H111.187L106.147 12.9683H106.092L106.147 14.879V21.0544Z" fill="white"/>
<path d="M129.657 43.8001H131.912V28.5533H129.657V43.8001ZM149.971 34.0454L147.386 40.6558H147.308L144.625 34.0454H142.195L146.218 43.2842L143.925 48.4238H146.276L152.478 34.0454H149.971ZM137.181 42.0681C136.441 42.0681 135.411 41.6962 135.411 40.773C135.411 39.5971 136.694 39.1459 137.802 39.1459C138.793 39.1459 139.261 39.3618 139.863 39.6557C139.687 41.068 138.482 42.0681 137.181 42.0681ZM137.453 33.7124C135.82 33.7124 134.128 34.4381 133.429 36.0468L135.431 36.8897C135.858 36.0468 136.655 35.7712 137.491 35.7712C138.658 35.7712 139.844 36.4773 139.863 37.7336V37.8898C139.454 37.6542 138.58 37.3019 137.511 37.3019C135.353 37.3019 133.156 38.4983 133.156 40.7339C133.156 42.7744 134.925 44.0891 136.908 44.0891C138.424 44.0891 139.261 43.4025 139.785 42.5975H139.863V43.7745H142.04V37.9287C142.04 35.2223 140.037 33.7124 137.453 33.7124ZM123.515 35.9017H120.307V30.6755H123.515C125.201 30.6755 126.158 32.0842 126.158 33.288C126.158 34.4698 125.201 35.9017 123.515 35.9017ZM123.457 28.5533H118.053V43.8001H120.307V38.0238H123.457C125.956 38.0238 128.413 36.1968 128.413 33.288C128.413 30.3792 125.956 28.5533 123.457 28.5533ZM93.9896 42.0706C92.4318 42.0706 91.1276 40.7547 91.1276 38.9471C91.1276 37.1201 92.4318 35.7834 93.9896 35.7834C95.5282 35.7834 96.7344 37.1201 96.7344 38.9471C96.7344 40.7547 95.5282 42.0706 93.9896 42.0706ZM96.5797 34.8991H96.5012C95.9947 34.2906 95.0219 33.7405 93.7951 33.7405C91.2243 33.7405 88.8688 36.0187 88.8688 38.9471C88.8688 41.8548 91.2243 44.1147 93.7951 44.1147C95.0219 44.1147 95.9947 43.5646 96.5012 42.9353H96.5797V43.683C96.5797 45.6673 95.5282 46.7285 93.8337 46.7285C92.451 46.7285 91.5941 45.7259 91.2437 44.8807L89.2772 45.7063C89.8417 47.0821 91.3416 48.7713 93.8337 48.7713C96.4818 48.7713 98.7214 47.1992 98.7214 43.3683V34.054H96.5797V34.8991ZM100.279 43.8001H102.538V28.5522H100.279V43.8001ZM105.867 38.7702C105.809 36.7664 107.405 35.7443 108.553 35.7443C109.45 35.7443 110.209 36.1957 110.462 36.8445L105.867 38.7702ZM112.877 37.0409C112.449 35.8822 111.144 33.7405 108.476 33.7405C105.828 33.7405 103.628 35.8419 103.628 38.9277C103.628 41.8352 105.809 44.1147 108.729 44.1147C111.085 44.1147 112.449 42.6609 113.013 41.8157L111.261 40.6363C110.677 41.5011 109.878 42.0706 108.729 42.0706C107.58 42.0706 106.762 41.54 106.237 40.4998L113.11 37.6299L112.877 37.0409ZM58.1167 35.3321V37.5324H63.3344C63.1785 38.7702 62.7699 39.674 62.1475 40.3022C61.3872 41.0693 60.1992 41.9146 58.1167 41.9146C54.903 41.9146 52.3915 39.3008 52.3915 36.059C52.3915 32.816 54.903 30.2035 58.1167 30.2035C59.8499 30.2035 61.1153 30.8914 62.0496 31.7757L63.5882 30.223C62.2828 28.9656 60.5509 28.0021 58.1167 28.0021C53.7162 28.0021 50.0166 31.6183 50.0166 36.059C50.0166 40.4998 53.7162 44.1147 58.1167 44.1147C60.4916 44.1147 62.2828 43.3281 63.6848 41.8548C65.1268 40.4009 65.5739 38.358 65.5739 36.7066C65.5739 36.1957 65.5352 35.7248 65.4567 35.3321H58.1167ZM71.5069 42.0706C69.9491 42.0706 68.6051 40.7742 68.6051 38.9277C68.6051 37.0604 69.9491 35.7834 71.5069 35.7834C73.0637 35.7834 74.4077 37.0604 74.4077 38.9277C74.4077 40.7742 73.0637 42.0706 71.5069 42.0706ZM71.5069 33.7405C68.6631 33.7405 66.3462 35.9213 66.3462 38.9277C66.3462 41.9146 68.6631 44.1147 71.5069 44.1147C74.3497 44.1147 76.6666 41.9146 76.6666 38.9277C76.6666 35.9213 74.3497 33.7405 71.5069 33.7405ZM82.7628 42.0706C81.2049 42.0706 79.8609 40.7742 79.8609 38.9277C79.8609 37.0604 81.2049 35.7834 82.7628 35.7834C84.3207 35.7834 85.6635 37.0604 85.6635 38.9277C85.6635 40.7742 84.3207 42.0706 82.7628 42.0706ZM82.7628 33.7405C79.9201 33.7405 77.6033 35.9213 77.6033 38.9277C77.6033 41.9146 79.9201 44.1147 82.7628 44.1147C85.6055 44.1147 87.9224 41.9146 87.9224 38.9277C87.9224 35.9213 85.6055 33.7405 82.7628 33.7405Z" fill="white"/>
</svg>
