<svg width="57" height="58" viewBox="0 0 57 58" fill="none" xmlns="http://www.w3.org/2000/svg">
<path d="M47.5 40.9316V36.1816C47.5 33.5573 45.3744 31.4316 42.75 31.4316H40.375C40.1636 29.3939 40.0947 29.3606 40.375 26.6816C41.0376 20.3261 43.3509 15.4408 45.125 12.4316C42.8403 13.7545 38.2636 16.8111 35.625 21.9316C32.9911 27.045 33.25 29.0566 33.25 31.4316V40.9316C33.25 43.556 35.3756 45.6816 38 45.6816H42.75C45.3744 45.6816 47.5 43.556 47.5 40.9316Z" fill="#C78EF2"/>
<path d="M23.7524 40.9316V36.1816C23.7524 33.5573 21.6268 31.4316 19.0024 31.4316H16.6274C16.4161 29.3939 16.3472 29.3606 16.6274 26.6816C17.2901 20.3261 19.6033 15.4408 21.3774 12.4316C19.0927 13.7545 14.5161 16.8111 11.8774 21.9316C9.24356 27.045 9.50244 29.0566 9.50244 31.4316L9.50244 40.9316C9.50244 43.556 11.6281 45.6816 14.2524 45.6816H19.0024C21.6268 45.6816 23.7524 43.556 23.7524 40.9316Z" fill="#C78EF2"/>
<path d="M31.4687 40.9316C31.4687 44.5345 34.3971 47.4629 38 47.4629H42.75C46.3505 47.4629 49.2812 44.5345 49.2812 40.9316V36.1816C49.2812 32.5788 46.3505 29.6504 42.75 29.6504H41.99C41.9449 28.9735 41.9852 28.4201 42.1467 26.8669C42.6407 22.1264 44.1584 17.5759 46.6592 13.3365C47.0701 12.6406 46.9585 11.7524 46.3885 11.1776C46.0441 10.8309 45.5881 10.6504 45.1226 10.6504C44.8186 10.6504 44.5099 10.7288 44.232 10.8903C41.0305 12.7451 36.6652 16.025 34.0409 21.1146C31.4212 26.1971 31.4426 28.5698 31.464 30.864L31.464 40.9316H31.4687ZM37.2115 22.7486C38.0974 21.0315 39.2279 19.5471 40.4462 18.2836C39.5152 20.946 38.9001 23.6915 38.608 26.4964C38.3467 29.0068 38.3705 29.3986 38.5486 31.0493L38.608 31.6121C38.703 32.5194 39.4677 33.2105 40.3797 33.2105H42.7547C44.3911 33.2105 45.7235 34.5429 45.7235 36.1793V40.9293C45.7235 42.5656 44.3911 43.898 42.7547 43.898H38.0047C36.3684 43.898 35.036 42.5656 35.036 40.9293V30.8308C35.0146 28.8001 34.998 27.045 37.2139 22.7463L37.2115 22.7486ZM7.72112 30.864V40.9316C7.7235 44.5345 10.6542 47.4629 14.2547 47.4629H19.0047C22.6052 47.4629 25.536 44.5345 25.536 40.9316V36.1816C25.536 32.5788 22.6052 29.6504 19.0047 29.6504H18.2447C18.1996 28.9735 18.24 28.4201 18.4015 26.8669C18.8955 22.1311 20.4131 17.5783 22.914 13.3365C23.3249 12.6383 23.2132 11.7524 22.6432 11.1776C22.2989 10.8309 21.8429 10.6504 21.3774 10.6504C21.0734 10.6504 20.7646 10.7288 20.4867 10.8903C17.2852 12.7451 12.92 16.025 10.2956 21.1146C7.67599 26.1971 7.69975 28.5698 7.72112 30.864ZM13.4639 22.7486C14.3497 21.0291 15.4826 19.5471 16.6986 18.2836C15.7676 20.9484 15.1525 23.6915 14.858 26.4988C14.5967 29.0091 14.6205 29.401 14.7986 31.0516L14.858 31.6145C14.953 32.5218 15.7177 33.2129 16.6297 33.2129H19.0047C20.6411 33.2129 21.9735 34.5453 21.9735 36.1816V40.9316C21.9735 42.568 20.6411 43.9004 19.0047 43.9004L14.2547 43.9004C12.6184 43.9004 11.286 42.568 11.286 40.9316V30.8331C11.2646 28.8025 11.248 27.0474 13.4639 22.7486Z" fill="#4D2C66"/>
</svg>
