<svg width="129" height="129" viewBox="0 0 129 129" fill="none" xmlns="http://www.w3.org/2000/svg">
<g clip-path="url(#clip0_879_19820)">
<mask id="mask0_879_19820" style="mask-type:luminance" maskUnits="userSpaceOnUse" x="0" y="0" width="129" height="129">
<path d="M129 0H0V129H129V0Z" fill="white"/>
</mask>
<g mask="url(#mask0_879_19820)">
<path d="M89.9479 36.9668C89.478 37.5138 88.6116 37.672 87.9777 37.3285C85.4458 35.9193 82.3493 36.1538 80.072 37.9182C79.4978 38.3635 78.6114 38.3418 78.059 37.8672C77.5025 37.389 77.3495 36.5081 77.7122 35.8714C79.1067 33.3677 78.8722 30.2712 77.1078 27.9939C77.1021 27.9866 77.0978 27.9805 77.0921 27.9732C76.6621 27.3979 76.6913 26.525 77.1601 25.9795C77.6276 25.4354 78.4861 25.275 79.1196 25.6134C81.6596 27.0271 84.756 26.7927 87.0333 25.0283C87.6075 24.583 88.4939 24.6047 89.0464 25.0793C89.6029 25.5575 89.7559 26.4385 89.3933 27.0752C87.9987 29.5789 88.2332 32.6753 89.9975 34.9526C90.4428 35.5268 90.4213 36.4158 89.9479 36.9668ZM81.5851 33.766C82.966 33.36 84.4167 33.2489 85.8415 33.4411C85.437 32.0615 85.3257 30.608 85.5202 29.1805C84.1382 29.5878 82.6874 29.699 81.2624 29.5042C81.6672 30.8865 81.7771 32.3386 81.5851 33.766Z" fill="url(#paint0_linear_879_19820)"/>
<path d="M37.5501 53.5555C36.4642 48.767 42.7277 45.9313 45.6094 49.9069C51.9615 58.6784 62.9499 62.8144 73.5281 60.407C78.3185 59.3252 81.1581 65.5974 77.1844 68.4832C68.3958 74.8436 64.2535 85.8296 66.6535 96.3903C67.7394 101.179 61.4759 104.015 58.5941 100.039C52.242 91.2675 41.2537 87.1314 30.6754 89.5388C25.8833 90.6214 23.0437 84.3493 27.0192 81.4626C35.8078 75.1022 39.9501 64.1162 37.5501 53.5555Z" fill="url(#paint1_linear_879_19820)"/>
</g>
</g>
<defs>
<linearGradient id="paint0_linear_879_19820" x1="78.0121" y1="37.8443" x2="88.9994" y2="25.0566" gradientUnits="userSpaceOnUse">
<stop stop-color="#4D2C66"/>
<stop offset="0.5" stop-color="#CA85FE"/>
<stop offset="1" stop-color="#BD67FE"/>
</linearGradient>
<linearGradient id="paint1_linear_879_19820" x1="25.4652" y1="87.1146" x2="78.5485" y2="63.0826" gradientUnits="userSpaceOnUse">
<stop stop-color="#4D2C66"/>
<stop offset="0.5" stop-color="#CA85FE"/>
<stop offset="1" stop-color="#BD67FE"/>
</linearGradient>
<clipPath id="clip0_879_19820">
<rect width="129" height="129" fill="white"/>
</clipPath>
</defs>
</svg>
