<svg width="36" height="37" viewBox="0 0 36 37" fill="none" xmlns="http://www.w3.org/2000/svg">
<g clip-path="url(#clip0_849_13585)">
<path d="M19.1129 3.75518H16.8872C15.9459 3.75518 15.1758 2.98505 15.1758 2.04377V1.79051C15.1758 0.849234 15.9459 0.0791016 16.8872 0.0791016H19.1129C20.0542 0.0791016 20.8243 0.849234 20.8243 1.79051V2.04377C20.8243 2.98505 20.0542 3.75518 19.1129 3.75518Z" fill="#AA6100"/>
<path d="M20.8242 1.79072V2.04349C20.8242 2.98512 20.0543 3.75511 19.1126 3.75511H16.8875C17.8226 3.74716 18.5846 2.98005 18.5846 2.04349V1.79072C18.5846 0.854156 17.8226 0.0870469 16.8875 0.0791016H19.1126C20.0543 0.0791016 20.8242 0.849094 20.8242 1.79072Z" fill="#884D00"/>
<path d="M17.9999 36.0791C27.0013 36.0791 34.2984 28.782 34.2984 19.7806C34.2984 10.7791 27.0013 3.48206 17.9999 3.48206C8.99851 3.48206 1.70142 10.7791 1.70142 19.7806C1.70142 28.782 8.99851 36.0791 17.9999 36.0791Z" fill="#FFD422"/>
<path d="M17.8371 33.2535C25.278 33.2535 31.31 27.2215 31.31 19.7806C31.31 12.3397 25.278 6.30774 17.8371 6.30774C10.3963 6.30774 4.36426 12.3397 4.36426 19.7806C4.36426 27.2215 10.3963 33.2535 17.8371 33.2535Z" fill="#C2DFF6"/>
<path d="M16.0176 21.963L12.6337 15.8643C12.4785 15.5846 12.7866 15.2765 13.0663 15.4317L19.165 18.8156L16.0176 21.963Z" fill="#ACABB1"/>
<path d="M16.0176 21.963L22.1163 25.3469C22.396 25.5021 22.7042 25.194 22.5489 24.9143L19.165 18.8156L16.0176 21.963Z" fill="#ACABB1"/>
<path d="M16.3442 21.6364L12.9604 15.5376C12.8052 15.2579 13.1133 14.9498 13.3929 15.1051L19.4917 18.4889L16.3442 21.6364Z" fill="#CD2A00"/>
<path d="M16.3442 21.6365L22.443 25.0203C22.7227 25.1755 23.0308 24.8674 22.8756 24.5878L19.4917 18.489L16.3442 21.6365Z" fill="#1E81CE"/>
<path d="M17.9856 21.3851C18.6257 21.3851 19.1446 20.8662 19.1446 20.2261C19.1446 19.586 18.6257 19.0671 17.9856 19.0671C17.3455 19.0671 16.8267 19.586 16.8267 20.2261C16.8267 20.8662 17.3455 21.3851 17.9856 21.3851Z" fill="#787680"/>
<path d="M18.221 21.3619C18.1449 21.377 18.066 21.3851 17.9856 21.3851C17.3461 21.3851 16.8267 20.8664 16.8267 20.2261C16.8267 19.5858 17.346 19.0671 17.9856 19.0671C18.066 19.0671 18.1449 19.0751 18.221 19.0903C17.6945 19.1997 17.2975 19.6662 17.2975 20.2261C17.2975 20.786 17.6945 21.2525 18.221 21.3619Z" fill="#3E3D42"/>
<path d="M13.1698 15.071C13.1535 15.1407 13.1617 15.2185 13.2037 15.2944L16.5877 21.393L16.3445 21.6363L12.9604 15.5376C12.8472 15.3333 12.9804 15.1141 13.1698 15.071Z" fill="#891C00"/>
<path d="M22.9099 24.8108C22.8664 24.9998 22.6473 25.133 22.4434 25.0203L16.3447 21.6362L16.588 21.3929L22.6866 24.777C22.7624 24.819 22.8398 24.8267 22.9099 24.8108Z" fill="#1A6FB0"/>
<path d="M19.0243 33.2013C18.6332 33.236 18.237 33.2535 17.8371 33.2535C10.3959 33.2535 4.36426 27.2218 4.36426 19.7806C4.36426 12.3394 10.3959 6.30774 17.8371 6.30774C18.237 6.30774 18.6332 6.32511 19.0243 6.35991C12.1394 6.96038 6.73871 12.7392 6.73871 19.7806C6.73871 26.822 12.1394 32.6008 19.0243 33.2013Z" fill="#96C8EF"/>
<path d="M18.7384 12.5033L17.6519 10.5247V12.4691C17.6519 12.652 17.4289 12.7436 17.2058 12.7436C16.9828 12.7436 16.7598 12.6521 16.7598 12.4691V8.83773C16.7598 8.64901 16.9828 8.56323 17.2058 8.56323C17.526 8.56323 17.6461 8.59185 17.8635 9.0093L18.7899 10.7764V8.83204C18.7899 8.64332 19.0129 8.56323 19.236 8.56323C19.459 8.56323 19.682 8.64325 19.682 8.83204V12.469C19.682 12.652 19.459 12.7435 19.236 12.7435C19.03 12.7435 18.8471 12.7035 18.7384 12.5033Z" fill="#ACABB1"/>
<path d="M18.7214 30.9063C18.7214 30.2144 16.9086 30.3345 16.9086 28.9963C16.9086 28.1385 17.6578 27.8125 18.3726 27.8125C18.6757 27.8125 19.5106 27.8697 19.5106 28.3158C19.5106 28.4701 19.4076 28.7847 19.156 28.7847C18.9501 28.7847 18.8415 28.5674 18.3726 28.5674C17.9666 28.5674 17.8007 28.7332 17.8007 28.9105C17.8007 29.4824 19.6135 29.3737 19.6135 30.8148C19.6135 31.6383 19.0131 32.0843 18.1839 32.0843C17.4348 32.0843 16.8057 31.7183 16.8057 31.3409C16.8057 31.1464 16.9772 30.8605 17.1946 30.8605C17.4633 30.8605 17.6349 31.2837 18.1667 31.2837C18.4297 31.2838 18.7214 31.1808 18.7214 30.9063Z" fill="#ACABB1"/>
<path d="M8.33239 20.8671H6.26809C5.96806 20.8671 5.72485 20.6239 5.72485 20.3239C5.72485 20.0238 5.96806 19.7806 6.26809 19.7806H8.33239C8.63242 19.7806 8.87563 20.0238 8.87563 20.3239C8.87563 20.6239 8.63242 20.8671 8.33239 20.8671Z" fill="#ACABB1"/>
<path d="M30.4769 20.8671H28.4126C28.1126 20.8671 27.8694 20.6239 27.8694 20.3239C27.8694 20.0238 28.1126 19.7806 28.4126 19.7806H30.4769C30.7769 19.7806 31.0202 20.0238 31.0202 20.3239C31.0202 20.6239 30.7769 20.8671 30.4769 20.8671Z" fill="#ACABB1"/>
<path d="M7.96001 20.6608H5.89577C5.59575 20.6608 5.35254 20.4176 5.35254 20.1176C5.35254 19.8176 5.59575 19.5743 5.89577 19.5743H7.96008C8.2601 19.5743 8.50331 19.8176 8.50331 20.1176C8.50331 20.4175 8.26003 20.6608 7.96001 20.6608Z" fill="#CC7400"/>
<path d="M30.1044 20.6608H28.0401C27.74 20.6608 27.4968 20.4176 27.4968 20.1176C27.4968 19.8176 27.74 19.5743 28.0401 19.5743H30.1044C30.4044 19.5743 30.6476 19.8176 30.6476 20.1176C30.6477 20.4175 30.4045 20.6608 30.1044 20.6608Z" fill="#CC7400"/>
<path d="M18.5177 12.2264L17.4312 10.2478V12.1921C17.4312 12.3751 17.2082 12.4666 16.9851 12.4666C16.7621 12.4666 16.5391 12.3751 16.5391 12.1921V8.56075C16.5391 8.37204 16.7621 8.28625 16.9851 8.28625C17.3053 8.28625 17.4254 8.31487 17.6428 8.73232L18.5692 10.4994V8.55506C18.5692 8.36634 18.7922 8.28625 19.0153 8.28625C19.2383 8.28625 19.4613 8.36627 19.4613 8.55506V12.192C19.4613 12.375 19.2383 12.4665 19.0153 12.4665C18.8093 12.4665 18.6264 12.4265 18.5177 12.2264Z" fill="#CC7400"/>
<path d="M18.5005 30.6293C18.5005 29.9374 16.6877 30.0575 16.6877 28.7193C16.6877 27.8615 17.4368 27.5355 18.1516 27.5355C18.4547 27.5355 19.2896 27.5928 19.2896 28.0388C19.2896 28.1932 19.1867 28.5077 18.9351 28.5077C18.7292 28.5077 18.6205 28.2904 18.1516 28.2904C17.7456 28.2904 17.5798 28.4563 17.5798 28.6335C17.5798 29.2054 19.3926 29.0967 19.3926 30.5378C19.3926 31.3613 18.7921 31.8074 17.9629 31.8074C17.2138 31.8074 16.5847 31.4413 16.5847 31.0639C16.5847 30.8695 16.7563 30.5836 16.9736 30.5836C17.2423 30.5836 17.4139 31.0067 17.9458 31.0067C18.2088 31.0069 18.5005 30.9039 18.5005 30.6293Z" fill="#CC7400"/>
<path d="M34.2985 19.7806C34.2985 28.782 27.0014 36.0791 18 36.0791C17.6907 36.0791 17.3828 36.0704 17.0779 36.053C25.6498 35.5749 32.4536 28.472 32.4536 19.7806C32.4536 11.0892 25.6497 3.9862 17.0779 3.50814C17.3828 3.49077 17.6907 3.48206 18 3.48206C27.0014 3.48206 34.2985 10.7791 34.2985 19.7806Z" fill="#EEBF00"/>
</g>
<defs>
<clipPath id="clip0_849_13585">
<rect width="36" height="36" fill="white" transform="translate(0 0.0791016)"/>
</clipPath>
</defs>
</svg>
